Patient4_TMGait_0pt2_03_right_06_EMG.mot
version=1
nRows=19
nColumns=33
inDegrees=no
endheader
time	1LAddLong	2LGlutMax	3LGlutMed	4LIliopsoas	5LSemiMemb	6LBicFemLong	7LRecFem	8LVastMed	9LVastLat	10LGasMed	11LTibAnt	12lTibPost	13LPeroneusLong	14LSol	15LExtDigLong	16LFlexDigLong	17RAddLong	18RGlutMax	19RGlutMed	20RIliopsoas	21RSemiMemb	22RBicFemLong	23RRecFem	24RVastMed	25RVastLat	26RGasMed	27RTibAnt	28RTibPost	29RPeroneusLong	30RSol	31RExtDigLong	32RFlexDigLong
13.46	0.015106	-0.080414	-0.078888	0.014954	-0.021515	-0.051575	0.024414	0.00351	0.003204	0.003967	0.019073	-0.001526	0.022736	-0.012817	0.010986	-0.019226	-0.069885	-0.2034	-0.4422	0.021515	-0.032654	-0.023041	-0.027008	0.31632	-0.002747	-0.000916	0.026398	-0.006256	-0.24796	0.42343	-0.002136	-0.009918
13.461	0.00946	-0.068665	-0.12695	0.010681	-0.10986	-0.065002	0.033112	-0.001984	0.006409	-0.041656	0.033875	0.001221	-0.058746	0.004578	0.011292	-0.018921	-0.038452	-0.22324	0.098877	0.023346	-0.14008	0.029144	-0.001831	0.10391	-0.02655	-0.002441	0.032196	-0.006714	-0.17136	0.40939	-0.003052	-0.010834
13.462	0.024109	-0.053406	-0.06546	-0.005188	-0.15427	-0.090485	0.025177	0.008392	-0.002441	-0.088196	0.009155	-0.002441	-0.06134	0.043182	0.011292	-0.019073	-0.009766	-0.19043	0.4039	-0.002289	-0.25146	0.016174	-0.04303	0.011749	-0.033417	-0.007324	0.008087	-0.006256	-0.004883	0.19486	0.000153	-0.004272
13.463	-0.022125	-0.047455	-0.043335	0.013123	-0.016785	-0.12528	0.024872	0.001984	-0.001831	-0.09552	-0.000153	0.000458	-0.023041	0.034637	0.009613	-0.035706	-0.01236	-0.12375	0.03952	0.000305	-0.15503	-0.027008	0.010681	-0.034485	-0.026093	-0.020142	0.017395	-0.003204	0.041199	0.19913	-0.002747	0.009003
13.464	0.005188	-0.060577	-0.1152	0.013275	0.021973	-0.16464	-0.011597	-0.001678	0.015564	-0.062561	0.010376	-0.012512	-0.024872	0.008087	0.020447	-0.044861	-0.068817	-0.029907	-0.046387	0.037689	-0.023193	0.036621	0.041351	-0.084381	-0.002899	-0.001221	-0.023804	-0.00885	0.13351	0.25848	-0.001068	-0.00061
13.465	0.023651	-0.062714	-0.10666	0.005798	0.077515	-0.1294	0.015411	0.006866	0.009155	-0.050659	-0.020905	-0.015717	-0.023651	0.038757	0.028687	-0.070038	-0.044556	0.019531	-0.030975	0.025024	0.014801	0.012665	0.06546	-0.016937	0.024719	0.016174	-0.009766	-0.008545	0.15823	0.31815	0.003662	-0.004578
13.466	0.018616	-0.035858	-0.05249	0	0.112	-0.019226	0.038605	-0.000153	-0.012665	-0.03418	-0.024414	-0.002899	0.012512	0.085754	0.054474	-0.010376	0.020142	0.09613	0.1297	-0.040741	0.014801	-0.064087	0.13107	0.056763	0.040588	0.028381	-0.012054	-0.01358	0.014343	0.24262	-0.001221	-0.007019
13.467	0.024567	-0.061951	-0.048218	0.000916	0.1059	0.069275	0.019531	0.015717	-0.004883	-0.014648	-0.010681	-0.009613	0.035706	0.14877	0.040131	0.027924	0.066986	0.13321	0.1767	-0.077362	0.022278	-0.085297	0.14755	0.029144	0.24124	0.013885	-0.007477	-0.024261	-0.09201	0.046692	-0.002899	-0.01297
13.468	0.023499	-0.062408	-0.054626	0.006104	0.065765	0.098572	0.017853	0.002136	-0.002136	-0.012512	-0.016327	-0.008545	0.050812	0.10452	0.041351	0.033569	0.12131	0.19577	0.007172	-0.058594	0.022888	-0.12512	0.089569	-0.021515	0.46249	0.006409	0.012512	-0.007019	-0.075531	-0.085602	-0.005341	-0.016632
13.469	0.012512	-0.037231	-0.033569	0.015564	0.028992	0.10132	0.00412	0.000153	0.001373	-0.011292	-0.011292	-0.013733	0.070038	0.09903	0.011749	-0.004425	0.11597	0.15427	0.23804	-0.019073	-0.12421	-0.11444	0.10361	0.028992	0.38452	0.000305	0.042419	0.019836	-0.054169	-0.060425	-0.005341	-0.015259
13.47	0.000763	-0.050201	-0.036163	0.022278	0.010529	0.10223	0.002441	0.003204	-0.001526	0.000153	-0.009766	-0.009308	0.057831	0.018921	-0.027008	-1.2582	0.064545	0.14496	0.62958	0.121	-0.20004	-0.032501	0.038147	-0.015564	0.12787	-0.001068	0.02121	0.009918	-0.11505	0.15335	-0.005798	-0.006256
13.471	0.000458	-0.066986	-0.052338	0.00473	-0.022888	0.10254	0.017242	0.000305	-0.002747	0.039063	0.010071	-0.005798	-0.00412	0.023193	-0.026245	0.6807	-0.042877	0.10696	0.5307	0.10864	-0.32989	0.096741	-0.063782	-0.029144	-0.11429	0.001373	0.009308	0.002747	-0.16769	0.063934	-0.001678	-0.010376
13.472	0.005493	-0.045319	-0.059967	0.015869	-0.057831	0.079041	0.005035	0.009155	-0.000458	0.078125	-0.009155	-0.007172	0.023041	0.005493	-0.000916	0.33112	-0.088501	0.083313	0.19379	0.053864	-0.21637	0.15442	-0.18356	0.030212	-0.21011	-0.000916	0.021057	-0.000916	-0.19577	-0.14587	-0.003357	-0.007782
13.473	0.008087	-0.077362	-0.094452	0.018616	-0.071716	0.051727	0.001068	0.000458	-0.003052	0.13519	-0.00824	0.00061	0.043182	-0.096436	0.03891	-0.57068	-0.076752	0.086975	0.13947	0.043335	0.24033	0.15289	-0.20294	0.52368	-0.10986	0.001373	0.034332	0.004425	-0.11307	-0.17044	-0.003662	-0.014648
13.474	0.010223	-0.035095	-0.018921	0.003967	-0.044098	0.018921	0.014648	0.003357	-0.001984	0.1358	0.009918	-0.008087	0.047913	-0.16815	0.033112	0.050049	-0.071411	0.063324	-0.040894	-0.001984	-0.051727	0.11383	0.029602	0.21683	-0.44632	-0.004578	0.012665	0.007629	-0.071259	-0.06012	-0.002594	-0.000763
13.475	0.007935	-0.035858	-0.031281	0.004578	-0.033569	-0.043182	0.00885	-0.001984	-0.007019	0.091248	-0.00946	-0.00473	0.077209	-0.067291	0.021515	0.65536	-0.024872	0.1236	0.069275	-0.037079	-0.26474	0.031738	0.25681	0.094757	-0.35217	0.000458	0.005798	0.005951	0.034637	-0.048828	-0.010986	-0.001068
13.476	0.008087	-0.048676	-0.03067	-0.004272	0.004425	-0.00351	0.013733	-0.000458	-0.010223	0.061188	-0.025024	-0.003052	0.078278	-0.010986	-0.004425	0.055084	0.032349	0.12299	0.11917	-0.048981	-0.3363	-0.094757	0.30441	0.065308	-0.15961	-0.004578	-0.004425	0.003815	0.17868	-0.036621	-0.001373	-0.003662
13.477	0.003357	-0.033569	-0.040283	0.000153	0.033112	0.023804	0.019836	0.004883	-0.010681	0.078125	-0.038757	-0.006866	0.04425	-0.026703	-0.006866	0.041351	0.10239	0.071564	-0.19547	-0.020905	-0.21652	-0.18158	0.21469	-0.15259	0.018158	0.00061	-0.016479	0.003052	0.22705	-0.066071	-0.001984	0.006409
13.478	0.011749	-0.036163	-0.013275	-0.006561	0.054626	0.002899	0.036469	0.007477	-0.010071	0.087738	-0.053558	-0.009918	0.04364	-0.046692	-0.027771	0.015717	0.11963	0.051575	-0.51331	0.078735	0.34683	-0.17899	0.13519	-0.35004	0.15518	0.003662	0.023499	-0.010986	-0.13962	-0.19821	-0.00885	0.012817
